<svg id="Layer_1" data-name="Layer 1" xmlns="http://www.w3.org/2000/svg" viewBox="0 0 282.98 282.98"><defs><style>.cls-1{fill:#fff;}.cls-2{fill:#d69bc5;}.cls-3{fill:#efa5c9;}</style></defs><circle class="cls-1" cx="141.49" cy="141.49" r="141.49"/><path class="cls-2" d="M311.51,306.77a14.38,14.38,0,0,0,14.37-13.61v-4.29c.25-45.63-33-82.43-73.86-82.43s-74.12,36.8-74.12,82.43v4.29a14.56,14.56,0,0,0,14.37,13.61Z" transform="translate(-138.76 -130.37)"/><path class="cls-3" d="M368,337.28a14.21,14.21,0,0,0,14.37-13.62c0-1.51.26-2.77.26-4.28,0-45.63-33.28-82.44-74.12-82.44s-74.37,36.81-74.37,82.44v4.28a14.56,14.56,0,0,0,14.37,13.62Z" transform="translate(-138.76 -130.37)"/></svg>