<?xml version="1.0" encoding="utf-8"?>
<!-- Generator: Adobe Illustrator 26.0.2, SVG Export Plug-In . SVG Version: 6.00 Build 0)  -->
<svg version="1.1" id="Layer_1" xmlns="http://www.w3.org/2000/svg" xmlns:xlink="http://www.w3.org/1999/xlink" x="0px" y="0px"
	 viewBox="0 0 292.8 51.9" style="enable-background:new 0 0 292.8 51.9;" xml:space="preserve">
<style type="text/css">
	.st0{enable-background:new    ;}
	.st1{fill:#5C2466;}
	.st2{fill:#D69AC5;}
	.st3{fill:#F1A5C9;}
</style>
<g class="st0">
	<path class="st1" d="M116.3,15.4c-2.6-3.1-6.4-4.8-10.4-4.8c-7.9,0-13.8,6.3-13.8,14.1c0,9.1,7.6,13.8,13.8,13.8
		c3.1,0,7.2-1.2,10.3-4.6v2.7c-3.1,2.8-6.9,3.8-10.2,3.8c-9.2,0-16-7.2-16-15.8c0-8.8,7.1-15.8,15.9-15.8c5.8,0,9.4,3.1,10.3,4
		L116.3,15.4L116.3,15.4z"/>
</g>
<g class="st0">
	<path class="st1" d="M135.9,21h1.8v18.8h-1.8v-3.4c-1.9,2.9-4.9,3.9-7.3,3.9c-4.9,0-9.2-3.7-9.2-9.9c0-5.8,3.7-9.8,9.2-9.8
		c2.9,0,5.5,1.2,7.3,3.7V21z M121.4,30.3c0,4.2,2.6,8.3,7.4,8.3c4.7,0,7.3-4,7.3-8.3c0-5.6-4.1-7.9-7.3-7.9
		C125,22.4,121.4,25.2,121.4,30.3z"/>
	<path class="st1" d="M144.4,21h1.8v3c0.9-1.6,2.6-3.4,5.8-3.4c3.4,0,4.8,2,5.2,2.6c0.8,1.3,0.9,3.1,0.9,4.7v11.8h-1.8V28
		c0-1.3,0-2.7-0.7-3.8c-0.4-0.7-1.4-1.8-3.7-1.8c-2.6,0-3.9,1.4-4.6,2.6c-0.8,1.5-1,3.2-1,5.1v9.8h-1.8L144.4,21L144.4,21z"/>
	<path class="st1" d="M180,6.3h1.8v33.5H180v-3.4c-1.9,2.9-4.9,3.9-7.3,3.9c-4.7,0-9.2-3.4-9.2-10c0-6.9,4.6-9.7,9.2-9.7
		c3.4,0,5.8,1.6,7.3,3.7V6.3z M165.5,30.3c0,5.5,3.6,8.3,7.4,8.3c3.7,0,7.3-2.8,7.3-8.3c0-4.4-2.7-7.9-7.4-7.9
		C168.9,22.4,165.5,25,165.5,30.3z"/>
	<path class="st1" d="M189.2,30.7c0,4.8,3.5,7.9,7.5,7.9c3,0,5.3-1.8,6.5-4.3l1.6,0.9c-1.1,2.1-3.6,5.1-8.2,5.1
		c-5.8,0-9.2-4.3-9.2-9.8c0-6.5,4.5-9.9,9.1-9.9c5.1,0,8.9,4,8.9,10L189.2,30.7L189.2,30.7z M203.3,28.9c-0.5-3.7-3.2-6.5-6.9-6.5
		c-3.8,0-6.5,2.9-7,6.5H203.3z"/>
	<path class="st1" d="M211.4,30.7c0,4.8,3.5,7.9,7.5,7.9c3,0,5.3-1.8,6.5-4.3l1.6,0.9c-1.1,2.1-3.6,5.1-8.2,5.1
		c-5.8,0-9.2-4.3-9.2-9.8c0-6.5,4.5-9.9,9.1-9.9c5.1,0,8.9,4,8.9,10L211.4,30.7L211.4,30.7z M225.5,28.9c-0.5-3.7-3.2-6.5-6.9-6.5
		c-3.8,0-6.5,2.9-7,6.5H225.5z"/>
</g>
<g class="st0">
	<path class="st1" d="M232.9,6.3h1.8V24c0.9-1.6,2.6-3.4,5.8-3.4c3.4,0,4.8,2,5.2,2.6c0.8,1.3,0.9,3.1,0.9,4.7v11.8h-1.8V28
		c0-1.3,0-2.7-0.7-3.8c-0.4-0.7-1.4-1.8-3.7-1.8c-2.6,0-3.9,1.4-4.6,2.6c-0.8,1.5-1,3.2-1,5.1v9.8H233L232.9,6.3L232.9,6.3z"/>
</g>
<g class="st0">
	<path class="st1" d="M254.1,21v11.3c0,1.3,0,3.3,1.2,4.7s2.9,1.5,3.7,1.5s2.6-0.1,3.7-1.5c1.2-1.4,1.2-3.4,1.2-4.7V21h1.8v11.8
		c0,1.5-0.1,3.5-1.4,5.2c-1.4,1.8-3.7,2.3-5.3,2.3s-3.9-0.5-5.3-2.3c-1.3-1.7-1.4-3.6-1.4-5.2V21H254.1z"/>
	<path class="st1" d="M274.3,6.3v18c1.8-2.4,4.4-3.7,7.4-3.7c5.7,0,9.1,4.2,9.1,9.7s-3.5,10-9.2,10c-4.6,0-6.7-2.9-7.3-3.9v3.4h-1.8
		V6.3H274.3z M288.8,30.3c0-5.2-3.4-7.9-7.3-7.9c-3.7,0-7.4,2.6-7.4,7.8c0,4.7,2.6,8.4,7.3,8.4C286.2,38.6,288.8,34.9,288.8,30.3z"
		/>
</g>
<path class="st2" d="M53,39.8c3,0,5.6-2.4,5.7-5.4c0-0.6,0-1.1,0-1.7C58.8,14.6,45.6,0,29.4,0S0,14.6,0,32.7c0,0.6,0,1.1,0,1.7
	c0.2,3,2.7,5.4,5.7,5.4C5.7,39.8,53,39.8,53,39.8z"/>
<path class="st3" d="M78.1,50.2c3,0,5.6-2.3,5.7-5.4c0-0.6,0.1-1.1,0.1-1.7c0-18.1-13.2-32.7-29.4-32.7S25,25,25,43
	c0,0.6,0,1.1,0,1.7c0.2,3,2.7,5.4,5.7,5.4H78.1z"/>
</svg>
