<?xml version="1.0" encoding="utf-8"?>
<!-- Generator: Adobe Illustrator 26.0.2, SVG Export Plug-In . SVG Version: 6.00 Build 0)  -->
<svg version="1.1" id="Layer_1" xmlns="http://www.w3.org/2000/svg" xmlns:xlink="http://www.w3.org/1999/xlink" x="0px" y="0px"
	 viewBox="0 0 81.1 51.9" style="enable-background:new 0 0 81.1 51.9;" xml:space="preserve">
<style type="text/css">
	.st0{fill:#D69AC5;}
	.st1{fill:#F1A5C9;}
</style>
<text transform="matrix(1 0 0 1 87.59 39.81)" style="fill:#5C2466; font-family:'FuturaPT-Light'; font-size:46px; letter-spacing:-1;">C</text>
<text transform="matrix(1 0 0 1 117.35 39.81)" style="fill:#5C2466; font-family:'FuturaPT-Light'; font-size:46px;">andee</text>
<text transform="matrix(1 0 0 1 229.59 39.81)" style="fill:#5C2466; font-family:'FuturaPT-Light'; font-size:46px;">h</text>
<text transform="matrix(1 0 0 1 248.96 39.81)" style="fill:#5C2466; font-family:'FuturaPT-Light'; font-size:46px;">ub</text>
<path class="st0" d="M53,39.8c3,0,5.6-2.4,5.7-5.4c0-0.6,0-1.1,0-1.7C58.8,14.6,45.6,0,29.4,0S0,14.6,0,32.7c0,0.6,0,1.1,0,1.7
	c0.2,3,2.7,5.4,5.7,5.4H53z"/>
<path class="st1" d="M75.4,51.9c3,0,5.6-2.3,5.7-5.4c0-0.6,0.1-1.1,0.1-1.7c0-18.1-13.2-32.7-29.4-32.7S22.3,26.7,22.3,44.8
	c0,0.6,0,1.1,0,1.7c0.2,3,2.7,5.4,5.7,5.4H75.4z"/>
</svg>
